<svg width="24" height="24" viewBox="0 0 24 24" fill="none" xmlns="http://www.w3.org/2000/svg" data-reactroot="">
<path fill="#76cba3" d="M5.68264 17.3074C6.79627 16.7262 8.16822 16.7924 9.75985 17.0707C10.5575 17.2101 11.5336 17.5776 12.5206 17.9938C13.1552 18.2614 13.8439 18.5713 14.5357 18.8825C14.9282 19.0591 15.3216 19.2361 15.7067 19.4061C16.7938 19.886 17.8451 20.3242 18.7797 20.622C19.7433 20.9291 20.4532 21.0426 20.9034 20.9864C20.929 20.9832 20.9527 20.9709 20.97 20.9516C21.0098 20.9075 21.0062 20.8394 20.9621 20.7996L20.9533 20.7917L20.7816 20.6334C20.6746 20.5349 20.5257 20.3979 20.3579 20.2439C20.0217 19.9353 19.6125 19.561 19.3139 19.2919L18.571 18.6224L19.9098 17.1367L20.6527 17.8061C20.9587 18.0819 21.3737 18.4615 21.7104 18.7705C21.8791 18.9253 22.0288 19.0631 22.1364 19.1621L22.306 19.3184C23.1659 20.0983 23.2334 21.4275 22.4558 22.2905C22.1168 22.6667 21.6537 22.9082 21.1512 22.971C20.2465 23.084 19.1862 22.8507 18.1724 22.5276C17.1295 22.1953 15.996 21.72 14.899 21.2358C14.4836 21.0524 14.0769 20.8694 13.6797 20.6906C13.0062 20.3875 12.3598 20.0966 11.7434 19.8367C10.756 19.4202 9.96643 19.1371 9.41542 19.0408C7.85377 18.7678 7.08025 18.834 6.60788 19.0805C6.17646 19.3056 5.76946 19.8064 5.33037 21.1298C5.15646 21.654 4.59053 21.9379 4.06634 21.764C3.54216 21.5901 3.25821 21.0242 3.43213 20.5C3.9085 19.0642 4.52805 17.9098 5.68264 17.3074Z" clip-rule="evenodd" fill-rule="evenodd" undefined="1"></path>
<path fill="#2b825b" d="M8.25317 11.9106C8.25317 11.9106 9.35444 11.5557 9.84387 11.2033C11.2663 10.1788 11.7783 9.61351 12.5249 8.08828C12.7289 7.67152 12.8556 6.94702 12.8556 6.94702L20.1522 17.0249C20.4721 17.4541 20.4392 18.0506 20.0741 18.4421L19.8377 18.6957C19.4667 19.0936 18.8616 19.1631 18.41 18.8597L8.25317 11.9106Z" clip-rule="evenodd" fill-rule="evenodd" undefined="1"></path>
<path stroke-linecap="round" stroke-width="1" stroke="#2b825b" d="M13.3443 12.3462L13.4271 12.429"></path>
<path fill="#76cba3" d="M11.2169 10.0752C13.3029 7.83824 13.5432 4.67201 11.7536 3.00322C9.96408 1.33443 6.82233 1.79501 4.73634 4.03196C2.65035 6.26891 2.41005 9.43514 4.19961 11.1039C5.98917 12.7727 9.13092 12.3121 11.2169 10.0752Z" clip-rule="evenodd" fill-rule="evenodd" undefined="1"></path>
<path stroke-linecap="round" stroke-width="1" stroke="#2b825b" d="M4.17615 11.073C4.17615 11.073 5.69828 10.0079 8.03583 7.50115C10.3734 4.99443 11.611 2.88184 11.611 2.88184"></path>
</svg>